<?xml version="1.0" encoding="iso-8859-1"?>
<!-- Generator: Adobe Illustrator 16.0.0, SVG Export Plug-In . SVG Version: 6.00 Build 0)  -->
<!DOCTYPE svg PUBLIC "-//W3C//DTD SVG 1.1//EN" "http://www.w3.org/Graphics/SVG/1.1/DTD/svg11.dtd">
<svg version="1.1" id="Capa_1" xmlns="http://www.w3.org/2000/svg" xmlns:xlink="http://www.w3.org/1999/xlink" x="0px" y="0px"
	 width="108.364px" height="108.364px" viewBox="0 0 108.364 108.364" style="enable-background:new 0 0 108.364 108.364;"
	 xml:space="preserve">
<g>
	<g>
		<path d="M31.439,75.499c-0.17,0.365-0.131,0.786,0.104,1.119c0.237,0.333,0.636,0.532,1.065,0.534l2.469,0.002V72.25h-1.738
			C32.617,73.273,31.973,74.355,31.439,75.499z"/>
		<polygon points="65.323,77.189 75.107,77.2 75.107,72.25 65.323,72.25 		"/>
		<polygon points="51.979,77.174 61.766,77.184 61.766,72.25 51.979,72.25 		"/>
		<path d="M51.979,62.141v6.809h9.785v-5.88c-2.398-0.664-4.949-1.024-7.584-1.024C53.439,62.045,52.707,62.083,51.979,62.141z"/>
		<path d="M65.323,64.334v4.615h7.013C70.34,67.047,67.963,65.489,65.323,64.334z"/>
		<path d="M38.637,68.95h9.785v-6.3c-3.615,0.765-6.95,2.238-9.785,4.283V68.95z"/>
		<path d="M54.182,0C24.258,0,0,24.258,0,54.182c0,29.924,24.258,54.183,54.182,54.183c29.923,0,54.182-24.259,54.182-54.183
			C108.364,24.258,84.105,0,54.182,0z M64.919,42.327l9.456-9.455c1.229-1.229,3.223-1.229,4.451,0s1.229,3.222,0,4.451
			l-9.456,9.456c-1.229,1.229-3.222,1.229-4.451,0C63.689,45.549,63.691,43.556,64.919,42.327z M29.537,32.871
			c1.229-1.229,3.222-1.229,4.451,0l9.456,9.455c1.229,1.229,1.229,3.222,0,4.451c-1.229,1.229-3.222,1.229-4.451,0l-9.456-9.456
			C28.308,36.093,28.308,34.1,29.537,32.871z M79.693,79.195c-0.266,0.455-0.713,0.729-1.191,0.729c-0.001,0-0.002,0-0.002,0
			l-48.638-0.068c-0.482,0-0.932-0.278-1.197-0.739s-0.309-1.043-0.117-1.55C32.831,66.245,42.866,58.93,54.111,58.93
			c11.486,0,21.58,7.352,25.714,18.726C80.01,78.162,79.96,78.74,79.693,79.195z"/>
		<polygon points="38.637,77.158 48.422,77.17 48.422,72.25 38.637,72.25 		"/>
	</g>
</g>
<g>
</g>
<g>
</g>
<g>
</g>
<g>
</g>
<g>
</g>
<g>
</g>
<g>
</g>
<g>
</g>
<g>
</g>
<g>
</g>
<g>
</g>
<g>
</g>
<g>
</g>
<g>
</g>
<g>
</g>
</svg>
