<?xml version="1.0" encoding="iso-8859-1"?>
<!-- Generator: Adobe Illustrator 19.0.0, SVG Export Plug-In . SVG Version: 6.00 Build 0)  -->
<svg version="1.1" id="Layer_1" xmlns="http://www.w3.org/2000/svg" xmlns:xlink="http://www.w3.org/1999/xlink" x="0px" y="0px"
	 viewBox="0 0 512 512" style="enable-background:new 0 0 512 512;" xml:space="preserve">
<g>
	<path style="fill:#FBD971;" d="M512,256c0,141.383-114.617,256-256,256S0,397.383,0,256S114.617,0,256,0S512,114.617,512,256"/>
	<g>
		<path style="fill:#E57E25;" d="M361.931,229.517c-12.659,0-24.726-5.447-33.112-14.945c-3.222-3.655-2.878-9.234,0.777-12.456
			c3.663-3.222,9.234-2.887,12.465,0.768c5.032,5.703,12.279,8.978,19.871,8.978s14.839-3.266,19.862-8.969
			c3.222-3.663,8.828-3.99,12.456-0.777c3.655,3.222,4.008,8.801,0.786,12.456C386.657,224.071,374.599,229.517,361.931,229.517"/>
		<path style="fill:#E57E25;" d="M150.069,229.517c-12.65,0-24.708-5.438-33.086-14.927c-3.231-3.646-2.887-9.225,0.768-12.456
			c3.655-3.231,9.242-2.887,12.456,0.768c5.032,5.694,12.279,8.96,19.862,8.96c7.592,0,14.839-3.266,19.862-8.969
			c3.222-3.663,8.819-3.99,12.456-0.777c3.655,3.222,4.008,8.801,0.786,12.456C174.795,224.071,162.737,229.517,150.069,229.517"/>
		<path style="fill:#E57E25;" d="M256,397.241c-34.578,0-67.151-13.444-91.754-37.87c-3.452-3.434-3.469-9.022-0.035-12.482
			c3.452-3.452,9.031-3.469,12.491-0.035C197.95,367.96,226.11,379.586,256,379.586s58.059-11.626,79.316-32.742
			c3.46-3.443,9.039-3.425,12.491,0.035c3.434,3.46,3.416,9.048-0.035,12.482C323.169,383.788,290.586,397.241,256,397.241"/>
		<path style="fill:#E57E25;" d="M181.457,132.418c-1.554,0-3.125-0.406-4.555-1.271c-16.817-10.134-37.72-10.143-54.554-0.009
			c-4.175,2.516-9.604,1.174-12.111-3.001c-2.525-4.175-1.174-9.604,3.001-12.111c22.44-13.542,50.335-13.524,72.792,0.009
			c4.167,2.516,5.517,7.936,2.993,12.111C187.372,130.9,184.45,132.418,181.457,132.418"/>
		<path style="fill:#E57E25;" d="M393.319,132.418c-1.554,0-3.125-0.406-4.555-1.271c-16.817-10.134-37.72-10.143-54.555-0.009
			c-4.175,2.516-9.604,1.174-12.111-3.001c-2.525-4.175-1.174-9.604,3.001-12.111c22.44-13.542,50.335-13.524,72.792,0.009
			c4.167,2.516,5.517,7.936,2.993,12.111C399.234,130.9,396.312,132.418,393.319,132.418"/>
	</g>
</g>
<g>
</g>
<g>
</g>
<g>
</g>
<g>
</g>
<g>
</g>
<g>
</g>
<g>
</g>
<g>
</g>
<g>
</g>
<g>
</g>
<g>
</g>
<g>
</g>
<g>
</g>
<g>
</g>
<g>
</g>
</svg>
